<?xml version="1.0" encoding="UTF-8" ?>
<!DOCTYPE svg PUBLIC "-//W3C//DTD SVG 1.1//EN" "http://www.w3.org/Graphics/SVG/1.1/DTD/svg11.dtd">
<svg width="490.5pt" height="114.75pt" viewBox="0 0 3840 897" version="1.1" xmlns="http://www.w3.org/2000/svg">
<g id="#006da5ff">
<path fill="#006da5" opacity="1.00" d=" M 448.47 13.31 C 453.61 9.49 459.66 7.22 465.15 3.98 C 471.72 9.39 477.09 16.96 485.73 19.20 C 492.32 23.83 492.54 32.85 493.42 40.14 C 500.27 69.89 511.79 98.35 518.37 128.18 C 520.16 135.35 521.70 142.84 525.94 149.05 C 529.91 156.03 532.40 163.72 535.28 171.18 C 544.39 196.54 552.53 222.25 560.00 248.14 C 564.94 264.75 567.93 282.08 575.04 297.96 C 580.98 304.63 581.55 313.85 584.36 321.94 C 587.60 333.29 593.33 343.98 594.49 355.87 C 596.42 364.72 602.53 371.73 606.74 379.51 C 608.35 382.05 606.96 385.04 605.10 387.00 C 597.80 395.43 587.18 399.62 577.45 404.49 C 577.52 400.00 577.97 395.32 576.30 391.05 C 573.48 394.84 573.62 399.74 572.67 404.16 C 571.32 410.42 570.20 417.13 565.81 422.10 C 558.56 430.98 550.53 439.50 541.07 446.03 C 532.13 449.33 526.10 457.09 519.22 463.27 C 514.82 467.00 510.64 471.48 504.86 472.97 C 498.55 475.21 497.66 483.03 492.73 486.83 C 490.47 488.60 487.14 487.57 485.71 485.25 C 481.94 479.76 481.21 472.94 479.22 466.73 C 473.59 445.98 467.73 425.27 463.33 404.21 C 461.44 393.99 459.92 383.57 455.94 373.89 C 449.57 355.60 444.64 336.84 440.19 318.00 C 439.34 314.11 439.57 309.88 437.48 306.35 C 434.15 300.26 428.57 295.80 422.89 292.01 C 419.72 290.10 415.99 291.76 412.99 293.21 C 410.01 294.75 406.81 295.99 404.15 298.08 C 401.19 300.79 399.78 304.72 398.71 308.47 C 394.17 325.92 390.97 343.75 384.80 360.74 C 381.76 367.83 380.13 375.39 378.38 382.87 C 374.95 398.42 372.31 414.13 370.34 429.92 C 369.44 437.68 368.48 445.52 365.83 452.91 C 362.67 461.47 360.45 470.33 357.56 478.98 C 356.21 482.70 355.08 486.58 352.69 489.80 C 338.32 481.79 325.01 472.00 311.81 462.22 C 293.04 448.17 275.94 432.08 259.15 415.76 C 252.76 409.58 246.59 403.12 241.23 396.01 C 238.95 392.49 235.94 388.54 236.85 384.11 C 238.01 381.89 240.28 380.39 241.07 377.93 C 246.19 364.58 248.85 350.43 254.01 337.09 C 256.13 331.83 258.24 326.42 261.83 321.96 C 264.02 319.04 266.03 315.95 267.47 312.59 C 277.60 284.21 289.23 256.40 299.73 228.16 C 305.26 213.51 310.75 198.84 316.21 184.16 C 321.82 168.50 326.16 152.39 329.60 136.11 C 330.87 129.82 332.12 123.49 332.42 117.06 C 332.96 107.10 338.66 98.40 344.82 90.93 C 347.92 87.22 351.66 83.99 355.97 81.76 C 359.05 80.16 362.78 80.78 365.83 79.08 C 374.37 74.54 380.18 66.55 387.67 60.66 C 393.95 55.84 400.29 51.03 407.32 47.34 C 417.83 41.75 427.81 34.75 435.38 25.47 C 439.20 20.87 443.77 16.98 448.47 13.31 Z" />
<path fill="#006da5" opacity="1.00" d=" M 344.39 65.41 C 355.75 57.04 369.61 50.91 384.02 52.40 C 378.60 57.90 373.05 63.41 366.69 67.82 C 359.92 72.74 350.45 72.67 343.33 68.56 C 341.72 67.68 343.61 66.10 344.39 65.41 Z" />
<path fill="#006da5" opacity="1.00" d=" M 3162.88 118.98 C 3167.09 113.61 3171.74 107.26 3178.92 106.02 C 3190.21 105.44 3199.24 113.84 3209.98 115.91 C 3217.55 117.34 3225.31 117.54 3233.01 117.58 C 3288.65 118.03 3344.32 115.27 3399.93 117.95 C 3432.25 119.86 3464.54 122.32 3496.89 123.67 C 3507.43 124.54 3517.72 127.29 3527.91 130.01 C 3539.89 133.34 3551.89 136.80 3563.35 141.68 C 3582.00 149.97 3596.38 165.10 3614.09 174.90 C 3619.60 180.48 3624.07 187.01 3628.20 193.66 C 3630.11 196.43 3629.99 200.13 3632.28 202.70 C 3635.70 206.68 3636.22 212.09 3637.05 217.06 C 3640.16 238.65 3635.13 260.47 3627.78 280.70 C 3619.15 303.67 3606.57 325.07 3591.28 344.22 C 3578.64 359.64 3565.66 374.78 3553.44 390.54 C 3550.93 394.11 3547.87 397.57 3547.03 401.98 C 3546.28 405.95 3543.08 408.71 3540.44 411.50 C 3532.76 418.59 3524.37 424.92 3515.44 430.34 C 3507.72 435.07 3499.65 439.50 3490.84 441.76 C 3486.30 443.00 3481.83 444.43 3477.28 445.52 C 3485.11 453.46 3494.04 460.32 3501.33 468.83 C 3514.71 483.62 3523.68 501.59 3534.78 518.01 C 3544.12 532.53 3554.63 546.23 3564.74 560.20 C 3570.30 567.54 3573.82 576.15 3579.19 583.64 C 3596.37 610.31 3614.17 636.59 3632.47 662.51 C 3636.81 668.80 3642.35 674.38 3645.40 681.48 C 3647.33 685.55 3645.03 689.83 3645.22 694.01 C 3647.64 696.53 3651.80 695.25 3654.48 697.54 C 3674.92 710.97 3690.64 730.20 3710.22 744.74 C 3713.09 746.55 3716.37 747.75 3718.88 750.16 C 3726.72 756.92 3734.33 764.15 3740.61 772.41 C 3744.07 776.48 3739.91 780.89 3738.31 784.73 C 3741.32 786.14 3744.77 785.03 3747.93 786.07 C 3758.74 788.92 3768.02 795.42 3778.04 800.12 C 3788.96 805.90 3800.56 810.17 3812.04 814.68 C 3799.85 812.86 3787.25 812.78 3775.60 808.29 C 3778.68 811.37 3782.31 813.85 3785.28 817.08 C 3778.80 814.72 3771.86 815.00 3765.12 814.52 C 3736.11 813.72 3707.09 814.98 3678.08 814.22 C 3664.70 814.24 3651.35 813.28 3637.98 813.12 C 3629.17 813.02 3620.33 812.09 3611.58 813.29 C 3613.87 816.19 3617.98 816.53 3620.73 818.94 C 3599.72 816.83 3579.23 810.04 3557.97 810.33 C 3550.57 810.27 3543.24 812.73 3535.86 811.48 C 3538.04 808.63 3541.96 808.64 3545.13 807.64 C 3552.50 805.96 3558.52 801.04 3564.03 796.11 C 3567.97 792.66 3571.47 788.70 3574.34 784.30 C 3575.55 782.15 3577.08 779.76 3576.45 777.17 C 3575.22 769.62 3569.65 763.95 3566.91 757.02 C 3565.65 754.11 3565.55 750.83 3564.09 748.03 C 3558.72 738.17 3550.70 730.16 3544.22 721.08 C 3532.35 704.73 3520.83 688.13 3509.70 671.26 C 3500.35 656.89 3490.25 642.88 3482.68 627.45 C 3477.23 618.19 3470.26 609.95 3463.58 601.58 C 3460.50 597.44 3456.96 593.38 3455.68 588.27 C 3457.34 587.31 3458.99 585.40 3457.22 583.63 C 3448.44 571.90 3441.90 558.62 3436.71 544.97 C 3434.43 533.06 3430.70 521.47 3426.65 510.05 C 3423.01 500.10 3418.62 490.27 3411.95 481.96 C 3405.20 473.38 3395.96 467.09 3386.10 462.61 C 3376.84 458.72 3367.35 454.29 3357.13 454.22 C 3347.76 450.01 3341.28 441.36 3332.04 436.95 C 3330.25 435.89 3327.55 436.34 3326.29 434.75 C 3326.19 431.46 3328.30 428.65 3329.66 425.79 C 3333.71 419.08 3337.48 411.65 3344.36 407.39 C 3348.73 404.69 3354.06 405.39 3358.92 404.38 C 3368.49 402.09 3376.99 396.94 3386.09 393.37 C 3398.09 388.14 3410.60 384.12 3422.28 378.16 C 3447.35 366.02 3470.59 350.05 3490.84 330.91 C 3495.20 326.70 3500.37 322.90 3502.83 317.16 C 3501.14 313.43 3497.46 310.90 3496.42 306.89 C 3495.59 302.40 3496.97 297.94 3497.79 293.55 C 3499.79 284.22 3500.29 273.92 3495.95 265.14 C 3491.11 255.54 3483.75 247.18 3474.74 241.32 C 3469.97 238.14 3463.99 238.74 3458.88 236.56 C 3441.67 230.23 3425.90 220.71 3409.70 212.25 C 3387.12 213.44 3364.52 214.28 3341.95 215.58 C 3329.27 216.47 3316.48 216.88 3304.04 219.61 C 3299.96 220.49 3295.52 222.65 3294.56 227.10 C 3292.82 236.61 3292.29 246.28 3291.41 255.89 C 3290.47 270.23 3289.45 284.56 3289.09 298.92 C 3288.83 311.66 3288.36 324.51 3290.40 337.14 C 3292.13 347.82 3294.99 358.31 3296.23 369.08 C 3298.17 383.65 3296.74 398.36 3296.16 412.97 C 3294.70 438.29 3293.59 463.70 3295.17 489.05 C 3295.71 497.38 3297.27 505.73 3296.59 514.10 C 3295.75 522.00 3285.37 523.94 3284.01 531.53 C 3287.85 534.15 3293.74 534.75 3295.18 539.92 C 3298.08 549.34 3298.10 559.30 3299.10 569.03 C 3300.33 585.70 3300.90 602.40 3302.10 619.07 C 3302.71 629.79 3309.00 639.25 3309.21 650.03 C 3309.95 662.17 3313.45 673.96 3314.23 686.07 C 3314.79 694.13 3307.51 699.54 3306.20 707.12 C 3306.56 707.71 3307.29 708.89 3307.66 709.47 C 3309.05 709.66 3310.46 709.85 3311.96 710.04 C 3318.58 715.21 3320.95 723.63 3326.29 729.85 C 3333.25 738.75 3341.50 746.66 3350.67 753.28 C 3356.59 757.73 3363.93 759.70 3369.88 764.13 C 3372.56 766.22 3375.74 768.34 3376.87 771.74 C 3374.84 773.79 3371.54 772.87 3368.99 773.20 C 3355.68 772.96 3342.01 773.64 3329.14 769.77 C 3327.06 770.08 3325.83 772.18 3323.82 772.48 C 3319.23 773.29 3314.67 771.99 3310.16 771.36 C 3296.68 769.62 3283.04 770.35 3269.58 771.75 C 3266.32 772.14 3262.94 772.34 3260.12 774.11 C 3262.21 776.05 3264.50 777.80 3266.45 779.94 C 3258.48 780.95 3250.46 779.22 3243.10 776.27 C 3233.18 772.43 3222.37 771.36 3211.84 772.25 C 3208.97 772.51 3205.89 773.11 3204.08 775.54 C 3205.44 776.74 3206.89 777.88 3208.31 779.09 C 3196.85 779.44 3185.50 777.31 3174.07 777.04 C 3162.07 776.26 3150.06 776.14 3138.05 776.17 C 3133.33 775.95 3128.40 776.40 3123.97 774.53 C 3132.55 769.61 3142.42 765.40 3147.69 756.51 C 3153.83 746.11 3155.80 734.00 3160.43 722.95 C 3162.68 717.46 3164.46 711.33 3169.23 707.40 C 3170.61 706.24 3169.41 704.45 3168.72 703.28 C 3166.16 699.73 3166.54 695.14 3166.57 691.01 C 3167.13 679.58 3170.08 668.45 3173.35 657.54 C 3176.19 646.26 3176.37 634.53 3176.28 622.97 C 3176.10 608.96 3177.27 594.94 3179.68 581.14 C 3183.15 557.24 3185.19 533.17 3187.48 509.15 C 3189.67 484.45 3191.78 459.75 3193.83 435.04 C 3194.91 421.08 3196.46 407.11 3196.17 393.10 C 3196.00 383.48 3191.86 374.68 3189.34 365.57 C 3185.94 354.10 3183.40 342.19 3183.66 330.18 C 3183.59 322.88 3187.20 316.24 3187.51 309.00 C 3187.67 303.84 3185.58 299.00 3184.93 293.95 C 3182.53 278.75 3181.46 263.37 3180.56 248.03 C 3179.65 238.25 3179.43 228.32 3176.87 218.79 C 3166.86 220.68 3157.79 225.73 3147.85 227.90 C 3139.23 229.93 3129.72 230.55 3121.51 226.72 C 3116.12 224.43 3111.99 219.78 3109.60 214.53 C 3107.48 209.01 3109.50 203.04 3111.82 197.93 C 3119.96 181.06 3130.91 165.77 3141.23 150.19 C 3148.53 139.85 3155.24 129.09 3162.88 118.98 Z" />
<path fill="#006da5" opacity="1.00" d=" M 2720.39 135.31 C 2730.80 128.35 2738.10 117.54 2749.18 111.50 C 2757.99 112.59 2765.30 118.55 2771.36 124.66 C 2775.29 128.39 2776.24 133.95 2777.59 138.96 C 2784.53 163.34 2792.68 187.40 2798.30 212.15 C 2799.26 216.51 2800.67 220.94 2803.59 224.43 C 2806.80 228.43 2808.25 233.45 2810.24 238.10 C 2817.96 258.72 2824.48 279.77 2830.55 300.93 C 2833.94 312.68 2836.77 324.61 2841.06 336.08 C 2842.57 340.56 2844.57 344.86 2847.13 348.86 C 2850.59 354.33 2849.69 361.15 2852.43 366.91 C 2854.41 372.36 2857.63 377.34 2858.89 383.05 C 2859.74 386.50 2858.63 390.27 2860.41 393.51 C 2863.27 398.98 2866.17 404.50 2867.70 410.52 C 2869.83 419.68 2873.18 428.52 2876.97 437.12 C 2881.56 448.00 2884.37 459.51 2886.98 471.00 C 2890.18 490.59 2895.89 509.76 2903.96 527.88 C 2912.17 546.71 2919.67 565.85 2926.87 585.09 C 2930.89 595.51 2935.40 605.73 2940.34 615.76 C 2945.46 625.20 2951.28 634.24 2956.54 643.61 C 2959.23 648.59 2962.63 653.20 2966.68 657.18 C 2970.40 660.71 2973.02 665.20 2975.34 669.74 C 2977.96 675.16 2980.91 680.43 2983.00 686.10 C 2985.56 692.93 2989.03 699.60 2989.69 706.98 C 2990.25 712.63 2986.96 717.69 2986.56 723.24 C 2989.29 722.68 2992.23 722.52 2994.60 724.34 C 3005.16 731.17 3013.09 741.18 3022.58 749.31 C 3029.68 755.70 3037.45 761.97 3046.96 764.21 C 3052.81 766.40 3059.31 768.57 3063.32 773.68 C 3057.95 774.79 3052.47 774.38 3047.05 774.44 C 3040.61 774.48 3033.99 773.09 3028.71 769.27 C 3024.58 766.69 3020.98 762.49 3015.86 762.11 C 3017.52 766.88 3022.36 769.70 3023.62 774.63 C 3018.05 775.84 3016.79 766.93 3011.24 769.53 C 3011.39 770.29 3011.71 771.81 3011.86 772.57 C 3003.29 774.14 2994.64 772.39 2986.05 772.19 C 2974.28 772.02 2962.41 772.09 2950.81 774.26 C 2948.82 774.74 2946.50 774.94 2945.17 776.65 C 2945.80 777.37 2947.04 778.80 2947.66 779.51 C 2938.43 781.87 2929.94 776.11 2920.88 775.69 C 2895.96 773.94 2870.97 775.09 2846.01 775.20 C 2825.93 775.70 2805.85 776.38 2785.77 776.68 C 2794.69 770.14 2805.37 766.07 2813.50 758.40 C 2817.68 754.57 2820.16 749.30 2822.15 744.08 C 2824.49 737.88 2826.67 731.61 2829.36 725.55 C 2832.36 720.45 2830.87 714.21 2829.22 708.91 C 2826.70 701.58 2826.01 693.73 2826.35 686.02 C 2826.77 678.06 2828.16 669.80 2825.40 662.10 C 2823.30 656.63 2820.87 651.29 2817.98 646.21 C 2813.38 637.43 2808.86 628.60 2803.92 620.01 C 2799.10 611.35 2795.22 602.22 2791.47 593.07 C 2787.42 582.45 2783.28 571.76 2781.30 560.53 C 2778.73 547.96 2776.36 535.33 2773.14 522.91 C 2772.33 520.23 2771.54 516.52 2768.14 516.31 C 2759.63 515.27 2751.15 517.57 2742.85 519.17 C 2721.34 524.23 2700.23 531.17 2680.08 540.24 C 2671.88 544.35 2662.26 548.14 2658.22 557.05 C 2648.52 575.26 2641.98 594.93 2635.78 614.54 C 2631.39 628.78 2627.84 643.26 2625.27 657.93 C 2622.78 668.47 2620.33 679.31 2614.65 688.67 C 2613.51 691.20 2611.68 694.09 2612.82 696.93 C 2615.46 704.04 2614.82 711.75 2615.58 719.18 C 2616.58 729.56 2619.17 740.03 2624.68 748.99 C 2630.07 758.11 2638.43 764.99 2647.38 770.44 C 2650.95 772.89 2655.34 774.17 2658.40 777.37 C 2645.25 776.77 2632.13 775.88 2619.00 775.00 C 2610.94 774.23 2602.83 773.76 2594.90 772.08 C 2594.71 772.58 2594.35 773.58 2594.17 774.07 C 2579.19 775.98 2564.05 775.82 2548.99 776.17 C 2536.29 776.21 2523.60 776.17 2510.93 775.86 C 2503.23 775.42 2495.42 775.84 2487.84 774.44 C 2481.83 770.86 2474.57 771.79 2468.00 770.31 C 2463.51 769.16 2460.93 765.02 2458.78 761.29 C 2455.71 755.56 2452.41 749.93 2449.97 743.90 C 2447.98 739.36 2448.29 734.21 2449.27 729.46 C 2451.50 718.17 2454.64 706.79 2460.88 697.00 C 2466.97 689.10 2473.14 681.25 2479.32 673.42 C 2486.75 662.92 2492.74 651.35 2496.69 639.09 C 2501.60 625.63 2507.35 612.49 2513.69 599.64 C 2519.32 586.85 2523.32 573.30 2525.22 559.44 C 2527.29 547.04 2527.12 534.45 2528.06 521.96 C 2528.93 511.41 2534.11 502.04 2539.08 492.95 C 2550.76 469.69 2558.66 444.84 2567.42 420.40 C 2570.57 411.61 2573.48 402.72 2576.65 393.93 C 2578.90 387.01 2581.55 380.14 2582.61 372.90 C 2583.52 367.33 2587.60 363.15 2590.31 358.42 C 2600.24 339.67 2607.31 319.62 2615.40 300.05 C 2623.91 279.80 2631.23 259.07 2638.21 238.25 C 2644.82 218.41 2648.26 197.71 2651.11 177.05 C 2651.86 172.31 2652.11 167.42 2653.84 162.90 C 2656.08 157.91 2661.06 155.05 2665.59 152.40 C 2670.09 149.87 2674.58 146.59 2679.94 146.39 C 2683.40 146.93 2686.42 149.61 2690.14 148.79 C 2701.27 147.37 2711.21 141.43 2720.39 135.31 M 2713.53 338.70 C 2709.15 339.93 2704.15 340.39 2700.72 343.64 C 2696.53 349.57 2695.83 357.07 2693.85 363.89 C 2689.61 382.46 2685.36 401.05 2682.48 419.90 C 2678.97 441.88 2675.06 463.84 2672.73 485.98 C 2672.26 489.13 2675.82 489.32 2677.94 488.42 C 2695.52 483.00 2713.15 477.68 2730.49 471.49 C 2738.73 468.36 2747.09 465.20 2754.49 460.32 C 2757.18 458.36 2760.47 455.70 2759.90 451.95 C 2759.50 447.92 2758.20 444.03 2756.53 440.36 C 2753.56 433.61 2753.03 426.18 2751.43 419.07 C 2746.89 399.42 2739.65 380.53 2734.90 360.94 C 2733.15 354.60 2731.61 347.87 2727.35 342.66 C 2724.09 338.65 2718.37 337.49 2713.53 338.70 Z" />
<path fill="#006da5" opacity="1.00" d=" M 2496.09 119.14 C 2502.27 117.89 2508.17 115.43 2514.46 114.67 C 2515.36 122.94 2511.39 130.71 2507.98 137.99 C 2502.86 147.21 2497.17 156.11 2492.63 165.64 C 2488.62 172.81 2485.42 180.37 2481.64 187.64 C 2474.64 201.89 2465.54 215.12 2454.62 226.65 C 2449.57 232.27 2444.09 237.50 2439.30 243.34 L 2438.72 243.29 C 2430.16 242.74 2421.55 243.13 2412.99 243.34 C 2407.63 243.12 2402.27 243.01 2396.92 243.06 C 2378.95 242.11 2361.27 238.65 2343.41 236.75 C 2326.17 234.71 2309.09 238.91 2292.05 240.92 C 2281.66 242.48 2271.08 242.88 2260.85 245.39 C 2242.69 250.95 2223.45 249.72 2204.71 249.80 C 2206.07 269.85 2207.71 289.89 2207.86 310.00 C 2208.67 364.34 2207.84 418.69 2208.02 473.03 C 2209.10 496.81 2212.66 520.39 2214.59 544.10 C 2215.22 553.73 2216.80 563.56 2214.85 573.12 C 2214.25 577.21 2210.42 579.20 2207.50 581.51 C 2206.69 582.20 2205.21 583.18 2206.26 584.35 C 2208.96 585.65 2212.32 586.28 2213.90 589.17 C 2215.87 593.13 2216.35 597.64 2216.96 601.98 C 2217.88 613.37 2220.34 624.60 2223.72 635.50 C 2226.57 644.94 2231.85 653.99 2231.23 664.16 C 2232.99 664.70 2235.04 665.33 2235.84 667.22 C 2239.77 674.96 2241.04 683.70 2242.47 692.18 C 2243.67 702.39 2244.81 713.31 2240.01 722.82 C 2251.87 732.50 2257.78 747.59 2269.76 757.22 C 2278.16 764.63 2289.08 768.13 2298.23 774.36 C 2276.14 774.10 2254.06 774.11 2231.98 773.71 C 2216.96 773.90 2201.83 773.20 2186.90 775.15 C 2183.22 775.17 2180.98 778.35 2177.88 779.65 C 2171.08 780.15 2164.70 777.23 2158.04 776.50 C 2154.45 776.01 2150.81 776.20 2147.24 775.72 C 2140.22 774.52 2133.07 775.23 2126.00 775.03 C 2097.67 774.90 2069.33 775.15 2041.00 775.14 C 2038.24 775.23 2035.49 775.13 2032.81 774.57 C 2042.18 770.28 2052.34 767.69 2061.15 762.22 C 2067.51 758.47 2073.37 753.64 2077.45 747.42 C 2080.97 742.55 2082.42 736.61 2085.34 731.40 C 2086.62 728.76 2088.70 726.47 2089.31 723.52 C 2090.95 715.44 2088.93 707.06 2090.97 699.02 C 2091.67 695.21 2093.92 692.00 2095.71 688.66 C 2098.45 683.09 2097.45 676.73 2098.41 670.80 C 2099.52 658.60 2098.61 646.26 2098.94 634.00 C 2098.29 621.33 2099.14 608.67 2098.94 596.00 C 2098.81 585.73 2099.22 575.45 2098.80 565.19 C 2099.15 555.80 2099.48 546.40 2100.13 537.03 C 2100.49 529.50 2103.35 522.30 2102.99 514.70 L 2103.25 514.63 C 2103.48 514.56 2103.95 514.43 2104.19 514.37 C 2103.72 507.92 2104.08 501.45 2104.01 495.00 C 2104.05 488.53 2103.62 482.06 2104.15 475.61 C 2103.92 475.55 2103.47 475.44 2103.24 475.38 L 2102.96 475.32 C 2102.59 451.40 2098.55 427.73 2097.13 403.88 C 2096.48 393.25 2097.68 382.62 2099.51 372.16 C 2101.50 360.21 2102.42 348.10 2102.77 336.00 C 2103.21 312.97 2101.33 289.89 2103.51 266.90 C 2104.22 260.14 2106.38 253.15 2104.27 246.44 C 2102.94 244.11 2099.71 244.28 2097.44 243.76 C 2071.11 240.36 2044.51 240.15 2018.02 239.45 C 1993.05 239.57 1967.74 238.39 1943.17 243.68 C 1920.57 248.04 1898.10 253.21 1875.93 259.36 C 1865.10 262.27 1854.40 265.66 1844.01 269.86 C 1840.51 270.96 1836.11 272.99 1832.96 270.09 C 1830.62 268.14 1827.68 265.51 1828.66 262.12 C 1829.84 256.75 1832.63 251.93 1835.03 247.04 C 1841.25 234.30 1848.13 221.87 1855.93 210.03 C 1870.49 190.76 1879.97 168.39 1890.62 146.87 C 1899.19 143.01 1907.76 139.13 1916.39 135.38 C 1925.59 131.63 1935.03 128.00 1945.02 127.15 C 1957.06 125.90 1968.84 129.56 1980.11 133.36 C 1993.29 135.07 2006.66 134.38 2019.93 134.69 C 2029.29 134.81 2038.62 135.55 2047.95 136.33 C 2062.71 137.71 2077.21 141.04 2092.01 142.07 C 2101.06 143.22 2111.06 141.48 2119.03 146.92 C 2126.75 148.65 2134.40 144.81 2142.09 144.13 C 2166.35 141.62 2190.76 143.63 2215.07 144.06 C 2255.03 145.27 2295.11 146.96 2335.01 143.83 C 2345.44 142.99 2355.82 141.39 2365.98 138.86 C 2382.85 133.57 2400.59 132.21 2418.04 129.94 C 2427.96 129.16 2438.04 127.27 2447.96 128.99 C 2452.28 129.67 2456.10 133.82 2460.61 132.46 C 2471.01 124.90 2483.89 122.37 2496.09 119.14 Z" />
<path fill="#006da5" opacity="1.00" d=" M 1596.21 125.26 C 1599.27 121.62 1603.13 118.11 1608.11 117.70 C 1616.84 116.70 1626.47 117.06 1633.97 122.18 C 1636.84 124.26 1639.58 126.85 1640.81 130.27 C 1642.08 133.51 1641.94 137.06 1642.75 140.42 C 1645.53 150.79 1648.99 160.96 1652.57 171.08 C 1656.20 182.30 1659.65 193.59 1662.59 205.01 C 1667.60 226.00 1674.43 246.54 1682.73 266.45 C 1690.48 285.73 1697.12 305.45 1702.77 325.44 C 1707.38 339.81 1711.99 354.22 1718.26 367.97 C 1720.38 373.26 1722.97 378.45 1724.07 384.08 C 1724.19 387.54 1724.07 391.12 1725.78 394.29 C 1735.59 414.68 1740.90 436.79 1747.77 458.26 C 1751.53 470.35 1755.77 482.29 1760.25 494.13 C 1763.49 503.00 1767.50 511.65 1769.72 520.86 C 1771.20 525.09 1767.65 528.32 1765.52 531.49 C 1764.26 533.07 1764.23 535.86 1766.39 536.69 C 1769.62 538.20 1773.49 537.12 1776.64 539.04 C 1778.62 547.72 1782.41 555.84 1785.64 564.10 C 1793.75 583.47 1802.21 602.70 1811.47 621.55 C 1816.16 631.18 1822.81 639.98 1825.46 650.50 C 1826.24 652.83 1827.96 654.70 1829.56 656.54 C 1835.01 662.11 1838.36 669.27 1842.21 675.96 C 1853.12 695.71 1861.40 716.96 1874.47 735.48 C 1883.90 748.92 1897.41 758.86 1912.00 766.08 C 1915.68 767.93 1919.17 770.17 1922.13 773.05 C 1918.88 775.33 1914.68 774.18 1910.99 774.43 C 1899.45 773.83 1887.64 773.15 1876.69 769.15 C 1876.21 771.84 1873.19 771.66 1871.08 771.96 C 1844.74 773.72 1818.34 772.28 1791.98 772.87 C 1779.26 773.10 1766.54 773.00 1753.85 773.82 C 1744.70 774.32 1735.38 774.41 1726.51 776.93 C 1726.92 777.68 1727.74 779.18 1728.15 779.93 C 1704.88 776.31 1681.29 775.52 1657.83 773.76 C 1666.41 769.47 1675.93 765.64 1681.73 757.59 C 1688.46 748.28 1689.42 736.43 1694.38 726.29 C 1695.89 722.69 1698.36 719.64 1700.25 716.26 C 1698.13 715.34 1696.13 713.97 1695.34 711.71 C 1690.64 701.09 1690.01 689.27 1689.54 677.85 C 1686.49 656.90 1679.11 636.91 1671.74 617.17 C 1665.67 600.94 1657.54 585.17 1655.23 567.82 C 1652.85 558.44 1646.83 550.64 1643.40 541.68 C 1640.41 535.47 1639.31 528.60 1636.71 522.26 C 1635.87 519.86 1633.62 518.04 1631.03 518.08 C 1620.33 517.39 1609.93 520.59 1599.56 522.69 C 1578.34 528.23 1557.17 534.34 1536.93 542.87 C 1531.52 545.36 1524.98 547.60 1522.64 553.65 C 1513.57 573.63 1509.23 595.29 1502.37 616.05 C 1498.88 628.67 1493.51 640.71 1490.59 653.48 C 1489.09 665.14 1486.52 676.63 1483.58 688.00 C 1481.77 696.93 1479.31 705.89 1479.35 715.05 C 1480.77 723.13 1483.11 731.06 1485.59 738.89 C 1488.26 746.86 1492.34 754.66 1498.97 760.06 C 1506.06 765.88 1514.14 770.35 1522.17 774.73 C 1511.44 773.44 1499.80 773.14 1490.64 766.73 C 1491.08 768.78 1491.60 770.84 1491.96 772.93 C 1485.53 775.13 1478.61 774.04 1471.96 774.19 C 1463.78 774.09 1455.58 774.36 1447.51 775.71 C 1441.97 776.54 1437.34 780.74 1431.53 780.14 C 1431.56 779.39 1431.63 777.90 1431.66 777.15 C 1417.54 775.01 1403.19 775.23 1388.94 774.94 C 1376.30 774.65 1363.65 774.60 1351.01 774.98 C 1335.32 774.96 1319.63 775.44 1303.97 776.20 C 1291.93 776.37 1279.74 778.37 1267.82 775.98 C 1267.72 774.94 1266.70 773.64 1267.69 772.76 C 1271.39 768.35 1276.55 765.57 1280.98 761.98 C 1289.81 755.29 1298.12 747.89 1305.72 739.83 C 1310.95 733.95 1316.78 728.11 1319.44 720.54 C 1321.82 711.35 1325.84 702.70 1330.15 694.28 C 1335.69 683.74 1341.89 673.52 1349.13 664.06 C 1355.40 655.79 1360.37 646.46 1363.23 636.46 C 1366.21 626.35 1370.53 616.70 1374.98 607.18 C 1380.33 596.81 1384.14 585.73 1387.25 574.51 C 1389.56 564.30 1390.86 553.77 1395.01 544.07 C 1402.15 524.01 1407.38 503.34 1413.60 482.98 C 1425.85 441.73 1440.71 401.34 1454.64 360.64 C 1461.81 340.21 1469.20 319.85 1477.56 299.88 C 1480.22 293.65 1482.76 287.31 1486.69 281.73 C 1492.62 270.45 1496.31 258.17 1500.40 246.15 C 1504.91 231.90 1509.88 217.65 1512.14 202.84 C 1512.55 190.83 1518.06 179.68 1524.91 170.07 C 1529.83 163.80 1535.29 157.07 1543.08 154.40 C 1554.25 153.58 1564.34 148.11 1573.96 142.76 C 1582.00 137.82 1590.16 132.64 1596.21 125.26 M 1583.47 306.31 C 1577.68 314.67 1574.71 324.53 1571.11 333.94 C 1563.61 354.07 1560.41 375.48 1552.77 395.55 C 1550.94 401.62 1549.85 407.88 1548.62 414.08 C 1544.48 436.95 1540.44 459.86 1537.94 482.97 C 1537.93 485.06 1536.53 489.04 1539.95 488.94 C 1546.08 487.99 1552.02 486.00 1558.08 484.62 C 1569.12 481.44 1580.43 479.21 1591.23 475.20 C 1601.48 471.36 1612.00 467.51 1620.84 460.88 C 1623.38 459.18 1624.80 456.22 1624.18 453.16 C 1622.58 438.89 1619.50 424.78 1615.38 411.03 C 1611.26 400.22 1608.25 389.04 1605.15 377.91 C 1599.45 357.01 1593.75 336.11 1587.42 315.40 C 1586.29 312.30 1585.78 308.81 1583.47 306.31 Z" />
<path fill="#006da5" opacity="1.00" d=" M 701.68 132.07 C 719.38 131.21 737.34 127.59 754.95 131.05 C 767.60 135.52 781.00 132.66 794.00 132.14 C 816.29 131.50 838.59 131.47 860.89 131.74 C 887.91 131.88 914.94 132.40 941.94 133.52 C 949.86 134.12 957.95 133.76 965.71 135.67 C 960.58 140.26 953.37 141.47 948.03 145.79 C 937.94 153.07 933.16 165.23 929.80 176.76 C 925.86 190.42 923.42 205.05 926.41 219.14 C 927.45 224.91 931.54 229.39 933.33 234.88 C 935.14 239.42 934.96 244.35 935.49 249.12 C 938.15 267.07 943.32 284.50 948.37 301.89 C 954.46 321.80 961.14 341.55 968.95 360.86 C 973.17 370.63 976.71 380.72 979.12 391.10 C 982.52 404.52 983.42 418.38 985.30 432.05 C 988.81 459.87 992.78 487.67 998.84 515.06 C 1005.96 548.30 1017.26 580.45 1029.26 612.18 C 1034.15 601.06 1038.69 589.77 1041.63 577.95 C 1047.16 555.24 1053.41 532.71 1059.62 510.17 C 1065.83 487.84 1071.65 465.40 1077.79 443.05 C 1081.51 429.42 1085.34 415.83 1088.70 402.11 C 1091.16 391.79 1093.84 381.47 1095.04 370.91 C 1098.59 346.08 1106.42 322.05 1116.37 299.08 C 1121.27 287.58 1126.87 276.40 1132.02 265.01 C 1135.33 257.34 1138.84 249.54 1139.67 241.14 C 1140.83 228.44 1138.68 215.51 1141.39 202.94 C 1142.00 198.45 1146.02 195.76 1147.87 191.88 C 1146.85 189.74 1144.62 188.34 1143.78 186.05 C 1139.59 177.04 1136.66 167.49 1134.15 157.89 C 1133.44 153.98 1131.88 149.98 1128.51 147.62 C 1121.82 142.62 1113.28 140.83 1106.80 135.47 C 1107.53 134.54 1108.41 133.75 1109.71 133.93 C 1112.48 133.93 1115.26 133.93 1118.03 133.70 C 1129.03 133.98 1140.03 133.98 1151.03 133.92 C 1207.64 135.43 1264.27 137.00 1320.91 136.81 C 1334.60 136.91 1348.30 136.60 1362.00 136.99 C 1365.96 137.50 1370.47 136.92 1373.95 139.24 C 1374.76 141.06 1373.82 143.12 1372.27 144.19 C 1367.04 148.33 1359.98 148.71 1354.49 152.37 C 1339.66 161.55 1328.64 175.35 1315.59 186.69 C 1312.36 189.41 1309.32 192.65 1305.16 193.89 C 1305.27 197.76 1308.52 200.94 1307.69 204.97 C 1306.27 213.41 1302.57 221.24 1299.22 229.04 C 1296.02 236.31 1292.28 243.35 1287.94 250.00 C 1285.40 253.98 1281.14 256.67 1279.25 261.09 C 1276.04 269.33 1270.42 276.26 1265.68 283.62 C 1257.42 297.14 1250.44 311.41 1243.78 325.77 C 1241.02 332.13 1237.83 338.38 1236.18 345.14 C 1231.75 346.06 1227.14 345.21 1222.79 346.56 C 1225.78 350.00 1231.66 352.51 1230.70 357.95 C 1229.09 366.68 1225.41 374.87 1222.27 383.14 C 1210.67 413.65 1200.60 444.72 1191.13 475.95 C 1188.13 486.97 1184.17 497.80 1182.67 509.17 C 1182.13 513.66 1179.68 517.55 1177.21 521.22 C 1173.83 526.41 1174.53 532.90 1172.37 538.54 C 1169.54 546.29 1166.20 553.84 1163.60 561.68 C 1156.85 581.68 1150.17 601.71 1144.04 621.92 C 1137.93 642.05 1131.67 662.16 1124.22 681.85 C 1111.62 712.13 1102.26 743.62 1093.13 775.08 C 1091.11 781.96 1090.06 789.25 1086.60 795.62 C 1082.43 802.63 1074.90 806.49 1067.78 809.86 C 1065.51 810.80 1062.71 812.04 1060.48 810.40 C 1052.33 805.51 1046.10 798.17 1038.96 792.02 C 1031.57 785.95 1024.02 779.98 1015.71 775.19 C 1007.90 770.17 999.96 765.13 993.47 758.42 C 991.41 756.43 989.02 754.80 986.50 753.47 C 983.21 751.66 979.12 752.37 976.00 750.21 C 968.48 745.52 963.83 737.50 960.48 729.52 C 957.10 721.64 957.09 712.92 954.62 704.80 C 948.02 681.22 939.83 658.14 931.66 635.08 C 924.26 614.90 916.79 594.73 908.39 574.93 C 905.45 568.24 902.64 561.45 898.51 555.39 C 893.69 545.96 890.38 535.86 886.92 525.89 C 880.44 506.02 873.53 486.30 866.16 466.76 C 860.63 452.25 854.65 437.90 849.74 423.16 C 844.75 409.71 841.29 395.76 836.83 382.14 C 835.87 378.81 834.50 375.51 834.54 371.99 C 834.40 369.15 838.09 367.96 837.83 365.06 C 836.82 358.98 833.62 353.54 832.28 347.54 C 830.74 342.36 831.27 336.80 829.47 331.68 C 824.30 314.73 816.11 298.95 809.32 282.64 C 805.00 273.09 801.69 263.13 797.35 253.60 C 792.73 243.49 785.41 235.03 779.06 226.01 C 767.04 209.49 754.52 193.17 744.94 175.05 C 741.22 169.30 736.35 164.10 730.30 160.77 C 718.70 153.52 710.26 142.49 701.68 132.07 Z" />
<path fill="#006da5" opacity="1.00" d=" M 3101.45 219.39 C 3105.13 218.39 3107.61 221.93 3109.82 224.26 C 3112.54 227.70 3115.68 230.97 3117.41 235.08 C 3117.62 237.34 3115.07 238.43 3113.64 239.69 C 3106.19 244.48 3098.17 248.38 3089.93 251.56 C 3087.34 252.25 3083.70 253.95 3081.86 251.06 C 3081.42 247.30 3083.29 243.81 3084.23 240.28 C 3086.31 234.53 3088.34 228.30 3093.04 224.11 C 3095.47 221.99 3098.31 220.29 3101.45 219.39 Z" />
<path fill="#006da5" opacity="1.00" d=" M 626.34 385.31 C 628.55 383.47 630.82 381.70 633.23 380.12 C 630.63 384.45 626.85 387.93 624.35 392.33 C 614.40 407.29 610.33 425.32 599.92 440.02 C 599.16 441.91 596.22 444.45 598.01 446.33 C 601.21 445.72 603.88 443.61 607.06 442.90 C 604.85 450.75 601.27 458.17 596.81 464.98 C 594.09 469.07 590.44 472.38 587.20 476.03 C 592.63 474.89 597.95 473.30 603.38 472.16 C 597.89 480.84 591.96 489.37 584.42 496.42 C 582.45 498.24 580.21 499.96 579.11 502.49 C 579.28 503.90 580.98 504.10 582.09 503.68 C 585.70 502.79 588.78 500.54 592.36 499.56 C 591.33 501.69 590.09 503.73 588.60 505.59 C 581.14 514.84 573.74 524.15 566.30 533.43 C 561.58 539.25 556.86 545.21 550.86 549.79 C 544.37 555.08 536.71 558.57 529.29 562.31 C 512.81 570.36 496.90 579.57 481.54 589.61 C 477.73 592.31 473.52 594.63 470.59 598.35 C 474.37 598.06 477.85 596.42 481.41 595.24 C 500.33 588.05 518.88 579.94 537.61 572.26 C 532.02 580.56 527.70 589.70 521.42 597.53 C 508.58 613.82 494.44 629.05 479.65 643.58 C 465.71 658.20 451.12 673.04 442.85 691.78 C 436.79 705.34 435.02 720.30 433.61 734.94 C 432.59 746.38 431.01 757.79 428.59 769.03 C 428.20 771.09 427.39 773.06 426.11 774.75 C 425.26 770.97 426.32 765.37 421.98 763.48 C 418.53 762.36 418.03 766.69 417.83 769.05 C 416.70 784.00 418.06 799.01 418.23 813.98 C 418.86 825.41 419.06 836.96 421.37 848.21 C 423.27 858.22 429.82 866.80 430.61 877.09 C 430.95 880.34 429.85 884.29 426.46 885.50 C 423.14 886.87 419.35 888.50 419.12 892.66 C 414.86 894.09 412.35 889.60 409.57 887.30 C 407.75 885.33 405.08 884.78 402.57 884.28 C 401.89 882.61 401.25 880.85 401.65 879.04 C 402.84 870.04 407.07 861.87 410.43 853.55 C 413.32 845.73 413.42 837.28 413.77 829.06 C 413.94 809.34 413.74 789.63 413.47 769.92 C 412.78 747.24 412.97 724.48 410.47 701.89 C 410.25 698.50 408.62 695.49 406.52 692.90 C 404.12 696.52 403.87 700.96 403.56 705.16 C 403.07 714.80 403.72 724.44 404.33 734.06 C 405.28 743.77 405.69 753.91 410.60 762.62 C 409.09 762.11 407.60 761.62 406.11 761.10 C 405.56 765.46 407.28 769.59 407.56 773.89 C 404.29 770.42 403.77 765.47 402.95 761.00 C 398.85 738.31 399.74 714.54 391.19 692.79 C 384.72 676.32 372.55 663.09 360.53 650.47 C 347.01 636.97 333.36 623.56 320.96 609.01 C 316.51 603.76 312.08 598.46 308.41 592.64 C 304.12 584.95 299.16 577.68 294.31 570.35 C 298.84 571.39 302.88 573.76 307.01 575.80 C 325.06 584.85 343.87 592.26 362.37 600.32 C 363.73 600.92 365.16 602.42 366.74 601.86 C 366.92 600.39 365.07 599.85 364.14 599.12 C 361.30 597.27 359.01 594.73 356.31 592.72 C 331.93 575.19 303.31 564.69 279.04 546.99 C 274.96 543.71 271.79 539.50 268.40 535.57 C 261.97 527.88 255.91 519.90 250.11 511.73 C 247.67 508.21 245.07 504.70 243.68 500.60 C 246.84 501.85 249.94 503.67 253.46 503.55 C 250.11 496.04 243.38 490.87 238.24 484.64 C 235.29 480.90 231.30 477.80 229.61 473.22 C 235.26 473.43 240.71 475.10 246.25 476.11 C 237.43 466.63 228.37 456.00 226.66 442.66 C 229.91 443.88 232.93 445.59 236.13 446.92 C 234.37 442.00 230.94 437.96 228.70 433.29 C 219.55 416.67 215.16 397.32 202.33 382.85 C 214.11 391.16 224.75 400.98 235.85 410.16 C 267.45 436.83 298.65 463.96 330.15 490.75 C 338.72 497.91 347.28 505.12 356.54 511.39 C 359.13 512.95 361.78 515.18 365.00 514.78 C 366.07 513.77 366.29 512.23 366.86 510.94 C 371.83 509.34 377.13 509.75 382.24 510.36 C 377.25 511.58 371.41 511.61 367.63 515.60 C 366.04 518.67 367.53 522.32 368.88 525.24 C 374.52 535.70 382.64 544.59 391.14 552.81 C 395.33 556.46 399.44 561.02 405.10 562.19 C 408.68 562.73 409.89 558.65 410.47 555.92 C 411.48 549.19 411.70 542.23 410.33 535.53 C 410.38 533.44 408.36 533.33 406.80 533.65 C 404.74 529.35 405.80 524.44 406.86 520.02 C 407.75 515.45 411.29 512.02 412.37 507.52 C 414.46 501.17 413.31 494.31 415.46 487.98 C 416.26 488.30 417.04 488.67 417.81 489.09 C 420.30 494.20 419.31 500.10 420.69 505.49 C 422.25 513.23 426.26 520.83 424.46 528.91 C 422.10 538.67 420.22 549.11 423.30 558.94 C 423.92 561.00 425.38 563.83 428.03 562.93 C 431.41 561.69 434.30 559.44 437.07 557.19 C 445.76 549.85 453.67 541.51 460.14 532.14 C 463.13 527.03 466.76 521.45 465.76 515.25 C 462.00 512.21 457.12 511.48 452.49 510.79 L 452.60 510.03 C 458.15 509.96 465.42 508.53 469.09 513.86 C 471.23 514.93 473.38 513.06 475.27 512.22 C 481.39 508.58 486.86 503.94 492.47 499.57 C 537.67 462.16 581.33 422.94 626.34 385.31 M 423.71 699.53 C 421.06 713.52 420.85 727.82 419.22 741.94 C 418.98 746.94 417.61 751.83 417.52 756.84 C 417.76 761.72 423.46 761.55 426.87 763.01 C 428.91 744.07 429.40 724.98 429.29 705.94 C 429.28 701.70 428.55 697.49 426.97 693.56 C 424.56 694.54 424.24 697.32 423.71 699.53 Z" />
<path fill="#006da5" opacity="1.00" d=" M 615.82 474.01 C 618.60 470.04 620.01 464.43 624.97 462.59 C 628.76 469.67 631.28 477.33 634.13 484.82 C 640.63 503.17 646.82 521.66 654.50 539.57 C 656.56 544.46 658.40 549.63 658.20 555.02 C 657.79 563.45 655.44 571.61 654.05 579.89 C 653.91 581.72 653.55 584.65 655.98 585.09 C 660.97 586.82 667.57 585.12 671.22 589.85 C 674.62 594.36 676.00 599.97 678.14 605.11 C 687.40 629.77 699.46 653.59 715.68 674.44 C 717.37 676.91 719.32 679.28 720.38 682.12 C 720.59 685.31 720.19 688.59 721.47 691.64 C 724.20 692.82 727.57 692.94 729.62 695.33 C 734.12 700.22 736.61 706.48 739.60 712.32 C 744.87 723.62 749.80 735.08 754.13 746.77 C 755.93 751.97 757.85 757.43 757.01 763.01 C 756.30 769.37 749.37 773.25 749.35 779.79 C 750.85 781.06 752.22 779.44 753.47 778.62 C 756.19 776.39 758.52 773.73 761.06 771.31 C 775.37 789.96 791.29 807.70 810.61 821.30 C 814.94 824.25 819.64 826.78 824.86 827.72 C 835.41 830.04 844.07 836.74 853.37 841.83 C 847.45 843.22 841.87 840.06 837.24 836.74 C 833.13 833.71 828.45 830.55 823.06 831.21 C 820.80 835.05 825.12 837.19 827.68 839.13 C 814.51 839.55 806.20 825.34 793.03 825.41 C 790.56 825.23 788.59 827.58 789.10 829.97 C 790.12 836.41 794.72 841.38 797.98 846.79 C 794.33 843.14 790.52 839.66 786.59 836.31 C 785.69 835.40 784.41 835.15 783.27 834.74 C 782.99 837.31 783.16 840.19 781.10 842.11 C 767.35 841.99 753.82 838.58 740.02 838.99 C 729.88 838.42 719.99 841.00 709.95 841.87 C 705.29 842.35 700.53 841.90 695.95 843.09 C 698.11 845.84 701.55 847.43 703.01 850.74 C 694.00 850.69 685.76 846.66 677.08 844.91 C 664.91 842.66 652.48 842.12 640.13 842.64 C 628.38 842.77 616.62 842.78 604.86 842.52 C 600.30 842.62 595.66 842.41 591.21 843.54 C 596.46 849.53 605.72 849.98 610.92 855.98 C 595.92 855.37 581.62 850.14 567.09 846.86 C 551.51 842.43 534.75 840.91 518.94 845.07 C 511.04 846.97 503.80 850.91 495.88 852.74 C 497.34 851.29 498.89 849.91 500.62 848.79 C 509.67 842.64 519.16 836.91 529.58 833.40 C 535.46 831.32 541.11 827.62 544.06 821.96 C 550.19 811.55 548.75 798.13 556.23 788.40 C 558.42 785.14 556.96 780.64 559.51 777.54 C 561.48 775.45 564.92 774.91 566.05 771.99 C 566.45 768.60 561.80 769.70 560.25 767.78 C 558.20 764.71 557.23 761.08 556.32 757.55 C 554.53 748.83 553.59 739.92 553.79 731.02 C 553.60 724.67 555.02 718.37 554.42 712.03 C 553.33 701.39 548.10 691.85 544.04 682.13 C 538.27 670.22 532.45 658.20 524.47 647.57 C 518.47 638.86 514.74 627.39 518.44 617.03 C 520.38 611.02 525.12 606.56 527.83 600.96 C 529.59 597.81 529.49 593.85 531.90 591.03 C 535.29 586.79 539.06 582.74 543.63 579.77 C 545.10 578.55 547.04 578.98 548.79 578.84 C 549.46 566.96 558.39 558.14 564.70 548.82 C 571.53 539.69 576.39 528.82 585.56 521.67 C 588.78 519.00 591.00 515.29 592.38 511.38 C 595.66 500.93 600.95 491.18 607.29 482.28 C 609.38 478.73 613.92 477.72 615.82 474.01 Z" />
<path fill="#006da5" opacity="1.00" d=" M 193.74 497.66 C 197.19 494.31 200.06 489.77 204.98 488.50 C 214.89 501.48 223.33 515.60 233.97 528.03 C 235.10 529.22 236.30 530.39 237.76 531.17 C 245.71 533.74 251.98 539.57 258.33 544.76 C 263.36 549.57 269.43 553.91 272.17 560.55 C 273.70 565.47 273.63 571.01 271.82 575.85 C 269.58 577.45 267.44 579.06 267.16 582.09 C 269.93 586.81 275.91 584.97 280.22 586.81 C 287.84 589.87 293.69 596.17 298.29 602.79 C 301.85 608.82 304.90 615.23 309.63 620.48 C 311.98 623.46 315.36 625.62 317.01 629.13 C 318.49 632.72 317.79 636.69 317.22 640.41 C 315.45 650.10 312.36 659.50 310.47 669.17 C 308.64 678.25 306.82 687.34 305.77 696.54 C 304.75 704.76 303.97 713.14 301.01 720.95 C 299.16 726.20 295.33 730.57 294.09 736.08 C 290.89 749.06 290.29 762.72 292.60 775.90 C 293.56 780.47 295.60 784.73 296.79 789.25 C 299.47 797.13 299.47 805.89 303.84 813.17 C 311.32 826.24 324.42 834.88 337.63 841.41 C 341.21 843.39 345.07 845.05 348.00 848.01 C 336.03 847.20 324.35 843.91 313.10 839.89 C 308.37 838.38 304.78 834.37 299.72 833.77 C 299.99 838.05 304.48 840.04 305.51 844.01 C 295.57 846.29 285.10 846.66 275.12 844.42 C 270.90 843.53 267.00 841.58 262.80 840.59 C 264.85 843.20 267.97 844.71 269.76 847.55 C 262.88 848.23 255.85 846.68 249.08 848.66 C 241.91 850.18 236.48 857.57 228.66 856.07 C 231.06 853.14 235.28 851.80 236.94 848.06 C 236.65 847.60 236.08 846.68 235.80 846.22 C 231.53 844.44 226.99 845.21 222.98 847.17 C 195.06 850.24 166.77 848.27 138.93 852.41 C 135.05 853.08 131.37 854.52 127.52 855.30 C 129.86 852.80 132.58 850.70 135.16 848.47 C 134.33 845.35 131.03 843.93 128.10 843.53 C 124.06 842.80 120.11 844.58 116.07 844.35 C 111.62 844.17 107.68 841.41 104.95 838.05 C 99.60 830.99 96.02 822.83 92.04 814.97 C 89.83 810.08 87.34 805.23 86.00 800.01 C 85.11 797.28 88.03 795.51 88.46 793.00 C 90.66 782.43 89.21 770.78 94.94 761.15 C 102.39 749.11 110.83 737.70 119.76 726.72 C 122.34 723.60 125.91 721.36 127.86 717.74 C 135.76 704.64 141.56 690.37 146.73 676.01 C 150.27 663.82 155.15 652.08 160.51 640.59 C 166.52 628.45 172.82 616.25 176.15 603.05 C 178.34 590.67 180.49 578.22 184.25 566.20 C 185.07 563.15 187.80 560.39 186.83 557.06 C 185.41 553.65 181.91 551.65 180.69 548.12 C 184.28 546.05 184.19 541.63 184.31 538.02 C 184.31 530.36 183.15 522.74 183.32 515.09 C 183.56 507.81 189.35 502.78 193.74 497.66 Z" />
<path fill="#006da5" opacity="1.00" d=" M 2430.97 736.89 C 2433.60 735.00 2436.95 735.20 2439.96 735.95 C 2441.85 738.37 2442.31 741.49 2443.70 744.19 C 2447.35 751.58 2452.96 757.91 2455.98 765.64 C 2451.93 770.39 2446.15 772.98 2440.64 775.59 C 2438.82 776.34 2436.88 777.18 2434.90 776.92 C 2423.12 775.69 2411.28 775.15 2399.48 774.33 C 2405.05 766.65 2411.03 759.28 2416.73 751.70 C 2421.05 746.40 2425.29 740.83 2430.97 736.89 Z" />
<path fill="#006da5" opacity="1.00" d=" M 967.33 761.07 C 970.58 757.01 976.28 757.76 980.89 757.89 C 988.84 758.76 996.86 764.69 998.28 772.87 C 993.73 776.20 987.82 773.57 983.12 771.89 C 977.43 769.09 970.68 766.87 967.33 761.07 Z" />
<path fill="#006da5" opacity="1.00" d=" M 54.26 808.39 C 59.21 804.11 63.72 798.95 70.07 796.73 C 74.49 797.76 78.25 801.29 78.87 805.90 C 80.18 815.14 88.90 820.60 91.91 829.10 C 93.44 833.34 94.84 838.36 92.65 842.63 C 90.83 846.15 86.31 844.54 83.36 846.21 C 79.63 847.58 77.86 851.81 73.99 852.85 C 70.84 853.56 67.61 852.86 64.52 852.22 C 55.48 850.09 46.62 847.26 37.87 844.18 C 33.95 842.52 28.90 840.94 28.03 836.12 C 35.49 825.75 45.08 817.18 54.26 808.39 Z" />
</g>
<g id="#00578439">
<path fill="#005784" opacity="0.22" d=" M 1109.71 133.93 C 1110.70 133.32 1111.79 133.03 1112.97 133.06 C 1121.64 133.00 1130.32 132.98 1139.00 133.07 C 1143.01 133.15 1147.12 132.72 1151.03 133.92 C 1140.03 133.98 1129.03 133.98 1118.03 133.70 C 1115.26 133.93 1112.48 133.93 1109.71 133.93 Z" />
<path fill="#005784" opacity="0.22" d=" M 2396.92 243.06 C 2402.27 243.01 2407.63 243.12 2412.99 243.34 C 2421.55 243.13 2430.16 242.74 2438.72 243.29 C 2436.28 244.39 2433.47 243.60 2430.91 243.71 C 2421.27 244.19 2411.62 243.72 2401.98 243.93 C 2400.21 244.01 2398.52 243.67 2396.92 243.06 Z" />
<path fill="#005784" opacity="0.22" d=" M 2103.24 475.38 C 2103.47 475.44 2103.92 475.55 2104.15 475.61 C 2103.62 482.06 2104.05 488.53 2104.01 495.00 C 2104.08 501.45 2103.72 507.92 2104.19 514.37 C 2103.95 514.43 2103.48 514.56 2103.25 514.63 C 2102.92 501.57 2103.14 488.43 2103.24 475.38 Z" />
<path fill="#005784" opacity="0.22" d=" M 2098.10 568.94 C 2098.20 567.71 2097.83 566.15 2098.80 565.19 C 2099.22 575.45 2098.81 585.73 2098.94 596.00 C 2099.14 608.67 2098.29 621.33 2098.94 634.00 C 2098.61 646.26 2099.52 658.60 2098.41 670.80 C 2097.07 659.58 2099.49 648.25 2098.11 636.99 C 2098.08 614.31 2098.07 591.63 2098.10 568.94 Z" />
<path fill="#005784" opacity="0.22" d=" M 364.14 599.12 C 365.07 599.85 366.92 600.39 366.74 601.86 C 365.16 602.42 363.73 600.92 362.37 600.32 C 362.81 600.02 363.70 599.42 364.14 599.12 Z" />
<path fill="#005784" opacity="0.22" d=" M 2030.58 775.92 C 2031.22 775.53 2031.82 775.05 2032.38 774.49 L 2032.81 774.57 C 2035.49 775.13 2038.24 775.23 2041.00 775.14 C 2069.33 775.15 2097.67 774.90 2126.00 775.03 C 2133.07 775.23 2140.22 774.52 2147.24 775.72 C 2141.19 776.10 2135.09 776.02 2129.05 775.74 C 2124.37 774.42 2119.71 776.21 2115.00 775.92 C 2086.86 775.77 2058.72 776.16 2030.58 775.92 Z" />
</g>
</svg>
